<svg width="94" height="91" viewBox="0 0 94 91" fill="none" xmlns="http://www.w3.org/2000/svg">
<path fill-rule="evenodd" clip-rule="evenodd" d="M46.9814 0C41.627 0.000244831 36.482 2.07943 32.6308 5.79926C28.7796 9.51909 26.5231 14.5889 26.3371 19.94C21.2132 18.4291 15.7021 18.9748 10.974 21.4614C6.24593 23.948 2.67327 28.1795 1.01463 33.2576C-0.644005 38.3357 -0.257994 43.8602 2.0907 48.6583C4.4394 53.4564 8.5658 57.15 13.5937 58.9549C10.6406 63.3576 9.51828 68.7374 10.4649 73.9535C11.4114 79.1697 14.3524 83.8122 18.6642 86.8965C22.9845 90.0165 28.3406 91.3524 33.6201 90.6268C38.8996 89.9011 43.6967 87.1696 47.0149 82.9997C49.0813 85.5994 51.7422 87.6644 54.7734 89.0209C57.8046 90.3774 61.1174 90.9857 64.4328 90.7944C67.7482 90.603 70.9691 89.6178 73.8242 87.9216C76.6792 86.2255 79.0849 83.868 80.8385 81.0479C82.9025 77.7134 83.961 73.8544 83.8873 69.9334C83.8135 66.0125 82.6106 62.1961 80.4227 58.9415C85.4146 57.1314 89.5071 53.4512 91.8351 48.6788C94.1631 43.9064 94.5442 38.4158 92.8978 33.3675L89.7052 34.4071L92.8911 33.3608C91.2266 28.298 87.6639 24.0777 82.9521 21.5874C78.2403 19.097 72.7465 18.5305 67.6257 20.0071C67.4567 14.6442 65.2077 9.55747 61.3547 5.82337C57.5017 2.08927 52.3469 0.000822581 46.9814 0Z" fill="#78A465"/>
<path d="M46.9814 61.9731C55.1506 61.9731 61.7704 55.4002 61.7704 47.2847C61.7704 39.1692 55.1506 32.5963 46.9814 32.5963C38.8122 32.5963 32.1924 39.1692 32.1924 47.2847C32.1924 55.4002 38.8122 61.9731 46.9814 61.9731Z" fill="#5D0606"/>
</svg>
